<mxfile host="app.diagrams.net" agent="Mozilla/5.0 (Windows NT 10.0; Win64; x64; rv:132.0) Gecko/20100101 Firefox/132.0" version="24.8.3">
  <diagram name="Página-1" id="dgJ4csljiLXN0dZLm248">
    <mxGraphModel dx="712" dy="1575" grid="1" gridSize="10" guides="1" tooltips="1" connect="1" arrows="1" fold="1" page="1" pageScale="1" pageWidth="827" pageHeight="1169" math="0" shadow="0">
      <root>
        <mxCell id="0" />
        <mxCell id="1" parent="0" />
        <mxCell id="elLrXuAYpcNcltLpws3a-6" style="rounded=0;orthogonalLoop=1;jettySize=auto;html=1;entryX=0;entryY=1;entryDx=0;entryDy=0;endArrow=none;endFill=0;" edge="1" parent="1" source="elLrXuAYpcNcltLpws3a-1" target="elLrXuAYpcNcltLpws3a-2">
          <mxGeometry relative="1" as="geometry" />
        </mxCell>
        <mxCell id="elLrXuAYpcNcltLpws3a-8" style="rounded=0;orthogonalLoop=1;jettySize=auto;html=1;endArrow=none;endFill=0;" edge="1" parent="1" source="elLrXuAYpcNcltLpws3a-1" target="elLrXuAYpcNcltLpws3a-4">
          <mxGeometry relative="1" as="geometry" />
        </mxCell>
        <mxCell id="elLrXuAYpcNcltLpws3a-9" style="rounded=0;orthogonalLoop=1;jettySize=auto;html=1;endArrow=none;endFill=0;" edge="1" parent="1" source="elLrXuAYpcNcltLpws3a-1" target="elLrXuAYpcNcltLpws3a-5">
          <mxGeometry relative="1" as="geometry" />
        </mxCell>
        <mxCell id="elLrXuAYpcNcltLpws3a-1" value="&lt;div&gt;Usuário&lt;/div&gt;" style="shape=umlActor;html=1;verticalLabelPosition=bottom;verticalAlign=top;align=center;" vertex="1" parent="1">
          <mxGeometry x="70" y="80" width="30" height="60" as="geometry" />
        </mxCell>
        <mxCell id="elLrXuAYpcNcltLpws3a-2" value="Cadastrar Funcionário" style="ellipse;whiteSpace=wrap;html=1;" vertex="1" parent="1">
          <mxGeometry x="80" y="-20" width="140" height="70" as="geometry" />
        </mxCell>
        <mxCell id="elLrXuAYpcNcltLpws3a-3" value="Consultar Funcionário" style="ellipse;whiteSpace=wrap;html=1;" vertex="1" parent="1">
          <mxGeometry x="160" y="60" width="140" height="70" as="geometry" />
        </mxCell>
        <mxCell id="elLrXuAYpcNcltLpws3a-4" value="Atualizar Funcionário" style="ellipse;whiteSpace=wrap;html=1;" vertex="1" parent="1">
          <mxGeometry x="200" y="150" width="140" height="70" as="geometry" />
        </mxCell>
        <mxCell id="elLrXuAYpcNcltLpws3a-5" value="Excluir Funcionário" style="ellipse;whiteSpace=wrap;html=1;" vertex="1" parent="1">
          <mxGeometry x="60" y="200" width="140" height="70" as="geometry" />
        </mxCell>
        <mxCell id="elLrXuAYpcNcltLpws3a-7" style="rounded=0;orthogonalLoop=1;jettySize=auto;html=1;endArrow=none;endFill=0;" edge="1" parent="1" source="elLrXuAYpcNcltLpws3a-1" target="elLrXuAYpcNcltLpws3a-3">
          <mxGeometry relative="1" as="geometry" />
        </mxCell>
        <mxCell id="elLrXuAYpcNcltLpws3a-10" value="&lt;div&gt;Solicitar Confirmação&amp;nbsp;&lt;/div&gt;&lt;div&gt;de Exclusão&lt;/div&gt;" style="ellipse;whiteSpace=wrap;html=1;" vertex="1" parent="1">
          <mxGeometry x="240" y="280" width="140" height="70" as="geometry" />
        </mxCell>
        <mxCell id="elLrXuAYpcNcltLpws3a-11" value="&amp;lt;&amp;lt;include&amp;gt;&amp;gt;" style="edgeStyle=none;html=1;endArrow=open;verticalAlign=bottom;dashed=1;labelBackgroundColor=none;rounded=0;" edge="1" parent="1" source="elLrXuAYpcNcltLpws3a-5" target="elLrXuAYpcNcltLpws3a-10">
          <mxGeometry width="160" relative="1" as="geometry">
            <mxPoint x="114" y="320" as="sourcePoint" />
            <mxPoint x="274" y="320" as="targetPoint" />
          </mxGeometry>
        </mxCell>
      </root>
    </mxGraphModel>
  </diagram>
</mxfile>
